<?xml version="1.0" standalone="no"?>
<!DOCTYPE svg PUBLIC "-//W3C//DTD SVG 1.1//EN" "http://www.w3.org/Graphics/SVG/1.1/DTD/svg11.dtd" >
<svg xmlns="http://www.w3.org/2000/svg">
<metadata></metadata>
<defs>
<font id="moonracerregular" horiz-adv-x="1433" >
<font-face units-per-em="2048" ascent="1638" descent="-410" />
<missing-glyph horiz-adv-x="819" />
<glyph horiz-adv-x="2048" />
<glyph horiz-adv-x="2048" />
<glyph unicode="&#xd;" horiz-adv-x="1024" />
<glyph d="M205 0h1024v205h-819v409h819v615h-410v205h-205v204h-204v-204h204v-205h-409v-205h821v-205h-821v-819zM819 1434h205v204h-205v-204z" />
<glyph horiz-adv-x="1024" d="M205 614h205v-614h409v205h-205v819h-204v205h-205v-205h205v-205h-205v-205zM614 1024h205v205h-205v-205z" />
<glyph unicode=" "  horiz-adv-x="819" />
<glyph unicode="&#x09;" horiz-adv-x="819" />
<glyph unicode="&#xa0;" horiz-adv-x="819" />
<glyph unicode="!" horiz-adv-x="614" d="M205 0h205v205h-205v-205zM205 410h205v819h-205v-819z" />
<glyph unicode="&#x22;" horiz-adv-x="1024" d="M205 819h205v410h-205v-410zM614 819h205v410h-205v-410z" />
<glyph unicode="#" d="M205 205h205v-205h204v205h205v-205h205v205h205v205h-205v204h205v205h-205v205h-205v-205h-205v205h-204v-205h-205v-205h205v-204h-205v-205zM614 410v204h205v-204h-205z" />
<glyph unicode="$" d="M205 0h409v-205h205v205h410v819h-410v205h410v205h-410v205h-205v-205h-409v-615h409v-409h-409v-205zM410 819v205h204v-205h-204zM819 205v409h205v-409h-205z" />
<glyph unicode="%" horiz-adv-x="1024" d="M205 0h205v410h-205v-410zM205 1024h205v205h-205v-205zM410 410h204v409h-204v-409zM614 0h205v205h-205v-205zM614 819h205v410h-205v-410z" />
<glyph unicode="&#x26;" d="M205 0h1024v207h-205v407h205v205h-410v410h-614v-1229zM410 207v407h409v-407h-409zM410 821v203h202v-203h-202z" />
<glyph unicode="'" horiz-adv-x="614" d="M205 819h205v410h-205v-410z" />
<glyph unicode="(" horiz-adv-x="819" d="M205 -205h205v-205h204v205h-204v1229h-205v-1229zM410 1024h204v205h-204v-205z" />
<glyph unicode=")" horiz-adv-x="819" d="M205 -205v-205h205v205h-205zM205 1024h205v-1229h204v1229h-204v205h-205v-205z" />
<glyph unicode="*" d="M205 205h205v205h-205v-205zM205 614h205v-204h204v-410h205v410h205v-205h205v205h-205v204h-205v410h-205v-410h-204v205h-205v-205zM1024 614h205v205h-205v-205z" />
<glyph unicode="+" d="M205 410h409v-410h205v410h410v204h-410v410h-205v-410h-409v-204z" />
<glyph unicode="," horiz-adv-x="614" d="M205 -205h205v410h-205v-410z" />
<glyph unicode="-" horiz-adv-x="1228" d="M205 410h819v204h-819v-204z" />
<glyph unicode="." horiz-adv-x="614" d="M205 0h205v205h-205v-205z" />
<glyph unicode="/" horiz-adv-x="1024" d="M205 0h205v410h-205v-410zM410 410h204v409h-204v-409zM614 819h205v410h-205v-410z" />
<glyph unicode="0" d="M205 0h1024v1229h-1024v-1229zM410 207v817h614v-817h-614z" />
<glyph unicode="1" horiz-adv-x="819" d="M205 1024h205v-1024h204v1229h-409v-205z" />
<glyph unicode="2" d="M205 0h1024v205h-819v409h819v615h-1024v-205h821v-205h-821v-819z" />
<glyph unicode="3" d="M205 0h1024v1229h-1024v-205h819v-205h-819v-205h819v-409h-819v-205z" />
<glyph unicode="4" d="M205 410h819v-410h205v1229h-205v-615h-614v615h-205v-819z" />
<glyph unicode="5" d="M205 0h1024v819h-819v205h819v205h-1024v-615h819v-409h-819v-205z" />
<glyph unicode="6" d="M205 0h1024v819h-819v205h819v205h-1024v-1229zM410 205v409h614v-409h-614z" />
<glyph unicode="7" d="M205 410h819v-410h205v1229h-1024v-205h819v-410h-819v-204z" />
<glyph unicode="8" d="M205 0h1024v1229h-1024v-1229zM410 207v407h614v-407h-614zM410 819v205h614v-205h-614z" />
<glyph unicode="9" d="M205 0h1024v1229h-1024v-819h819v-205h-819v-205zM410 614v406h614v-406h-614z" />
<glyph unicode=":" horiz-adv-x="614" d="M205 0h205v205h-205v-205zM205 614h205v205h-205v-205z" />
<glyph unicode=";" horiz-adv-x="614" d="M205 -205h205v410h-205v-410zM205 614h205v205h-205v-205z" />
<glyph unicode="&#x3c;" horiz-adv-x="1024" d="M205 410h205v-205h204v-205h205v205h-205v205h-204v204h-205v-204zM410 614h204v205h-204v-205zM614 819h205v205h-205v-205z" />
<glyph unicode="=" horiz-adv-x="1228" d="M205 205h819v205h-819v-205zM205 614h819v205h-819v-205z" />
<glyph unicode="&#x3e;" horiz-adv-x="1024" d="M205 0h205v205h-205v-205zM205 819h205v-205h204v-204h205v204h-205v205h-204v205h-205v-205zM410 205h204v205h-204v-205z" />
<glyph unicode="?" d="M205 1024h819v-205h-614v-409h204v204h615v615h-1024v-205zM410 0h204v205h-204v-205z" />
<glyph unicode="@" horiz-adv-x="1843" d="M205 -205h1229v205h-1024v1024h1024v-614h-205v409h-615v-614h1024v1024h-1433v-1434zM819 410v204h205v-204h-205z" />
<glyph unicode="A" d="M205 0h205v410h614v-410h205v1229h-1024v-1229zM410 614v410h614v-410h-614z" />
<glyph unicode="B" d="M205 0h1024v819h-205v410h-819v-1229zM410 207v407h614v-407h-614zM410 821v203h407v-203h-407z" />
<glyph unicode="C" d="M205 0h1024v205h-819v819h819v205h-1024v-1229z" />
<glyph unicode="D" d="M205 0h819v205h205v819h-205v205h-819v-1229zM410 205v819h614v-819h-614z" />
<glyph unicode="E" d="M205 0h1024v205h-819v409h819v207h-819v203h819v205h-1024v-1229z" />
<glyph unicode="F" d="M205 0h205v410h819v204h-819v410h819v205h-1024v-1229z" />
<glyph unicode="G" d="M205 0h1024v819h-615v-205h410v-409h-614v819h819v205h-1024v-1229z" />
<glyph unicode="H" d="M205 0h205v614h614v-614h205v1229h-205v-408h-614v408h-205v-1229z" />
<glyph unicode="I" horiz-adv-x="614" d="M205 0h205v1229h-205v-1229z" />
<glyph unicode="J" horiz-adv-x="1228" d="M205 0h819v1229h-205v-1024h-614v-205z" />
<glyph unicode="K" d="M205 0h205v614h614v-614h205v821h-203v408h-207v-408h-409v408h-205v-1229z" />
<glyph unicode="L" horiz-adv-x="1228" d="M205 0h819v205h-614v1024h-205v-1229z" />
<glyph unicode="M" horiz-adv-x="1843" d="M205 0h205v1024h409v-1024h205v1024h410v-1024h204v1229h-1433v-1229z" />
<glyph unicode="N" d="M205 0h205v1024h614v-1024h205v1229h-1024v-1229z" />
<glyph unicode="O" d="M205 0h1024v1229h-1024v-1229zM410 207v817h614v-817h-614z" />
<glyph unicode="P" d="M205 0h205v410h819v819h-1024v-1229zM410 614v410h614v-410h-614z" />
<glyph unicode="Q" horiz-adv-x="1638" d="M205 0h1229v205h-205v1024h-1024v-1229zM410 205v819h614v-819h-614z" />
<glyph unicode="R" d="M205 0h205v410h409v-410h205v410h205v819h-1024v-1229zM410 614v410h614v-410h-614z" />
<glyph unicode="S" d="M205 0h1024v819h-819v205h819v205h-1024v-615h819v-409h-819v-205z" />
<glyph unicode="T" d="M205 1024h409v-1024h205v1024h410v205h-1024v-205z" />
<glyph unicode="U" d="M205 0h1024v1229h-205v-1024h-614v1024h-205v-1229z" />
<glyph unicode="V" d="M205 0h409v207h-204v1022h-205v-1229zM614 207h205v203h-205v-203zM819 410h205v409h-205v-409zM1024 819h205v410h-205v-410z" />
<glyph unicode="W" horiz-adv-x="1843" d="M205 0h1433v1229h-204v-1024h-410v1024h-205v-1024h-409v1024h-205v-1229z" />
<glyph unicode="X" d="M205 0h205v614h-205v-614zM205 819h205v-205h614v-614h205v614h-205v205h-614v410h-205v-410zM1024 819h205v410h-205v-410z" />
<glyph unicode="Y" d="M205 410h409v-410h205v410h410v819h-203v-615h-616v615h-205v-819z" />
<glyph unicode="Z" d="M205 0h1024v205h-819v409h819v615h-1024v-205h821v-205h-821v-819z" />
<glyph unicode="[" horiz-adv-x="819" d="M205 -410h409v205h-204v1229h204v205h-409v-1639z" />
<glyph unicode="\" horiz-adv-x="1024" d="M205 819h205v-409h204v-410h205v410h-205v409h-204v410h-205v-410z" />
<glyph unicode="]" horiz-adv-x="819" d="M205 -205v-205h409v1639h-409v-205h205v-1229h-205z" />
<glyph unicode="^" horiz-adv-x="1024" d="M205 819h205v205h-205v-205zM410 1024h204v-205h205v205h-205v205h-204v-205z" />
<glyph unicode="_" horiz-adv-x="1228" d="M205 0h819v205h-819v-205z" />
<glyph unicode="`" horiz-adv-x="819" d="M205 1024h205v-205h204v205h-204v205h-205v-205z" />
<glyph unicode="a" horiz-adv-x="1228" d="M205 0h409v205h-204v409h409v-614h205v819h-819v-819z" />
<glyph unicode="b" horiz-adv-x="1228" d="M205 0h819v819h-614v410h-205v-1229zM410 205v409h409v-409h-409z" />
<glyph unicode="c" horiz-adv-x="1228" d="M205 0h819v205h-614v409h614v205h-819v-819z" />
<glyph unicode="d" horiz-adv-x="1228" d="M205 0h819v1229h-205v-410h-614v-819zM410 205v409h409v-409h-409z" />
<glyph unicode="e" horiz-adv-x="1228" d="M205 0h819v205h-614v409h409v-204h205v409h-819v-819z" />
<glyph unicode="f" horiz-adv-x="1024" d="M205 0h205v614h409v207h-409v203h409v205h-614v-1229z" />
<glyph unicode="g" horiz-adv-x="1228" d="M205 0h614v-205h-614v-205h819v1229h-819v-819zM410 205v409h409v-409h-409z" />
<glyph unicode="h" horiz-adv-x="1228" d="M205 0h205v614h409v-614h205v821h-614v408h-205v-1229z" />
<glyph unicode="i" horiz-adv-x="614" d="M205 0h205v614h-205v-614zM205 819h205v205h-205v-205z" />
<glyph unicode="j" horiz-adv-x="614" d="M205 -410h205v1024h-205v-1024zM205 819h205v205h-205v-205z" />
<glyph unicode="k" horiz-adv-x="1228" d="M205 0h205v410h409v-410h205v614h-207v205h-203v-205h-204v615h-205v-1229z" />
<glyph unicode="l" horiz-adv-x="614" d="M205 0h205v1229h-205v-1229z" />
<glyph unicode="m" d="M205 0h205v614h204v-614h205v614h205v-614h205v819h-1024v-819z" />
<glyph unicode="n" horiz-adv-x="1228" d="M205 0h205v614h409v-614h205v819h-819v-819z" />
<glyph unicode="o" horiz-adv-x="1228" d="M205 0h819v819h-819v-819zM410 205v409h409v-409h-409z" />
<glyph unicode="p" horiz-adv-x="1228" d="M205 -410h205v410h614v819h-819v-1229zM410 205v409h409v-409h-409z" />
<glyph unicode="q" horiz-adv-x="1228" d="M205 0h614v-410h205v1229h-819v-819zM410 205v409h409v-409h-409z" />
<glyph unicode="r" horiz-adv-x="1024" d="M205 0h205v614h409v205h-614v-819z" />
<glyph unicode="s" horiz-adv-x="1024" d="M205 0h409v614h205v205h-407v-614h-207v-205z" />
<glyph unicode="t" horiz-adv-x="819" d="M205 0h205v614h204v207h-204v203h-205v-1024z" />
<glyph unicode="u" horiz-adv-x="1228" d="M205 0h819v819h-205v-614h-409v614h-205v-819z" />
<glyph unicode="v" horiz-adv-x="1228" d="M205 0h409v205h-204v614h-205v-819zM614 205h205v205h-205v-205zM819 410h205v409h-205v-409z" />
<glyph unicode="w" d="M205 0h1024v819h-205v-614h-205v614h-205v-614h-204v614h-205v-819z" />
<glyph unicode="x" horiz-adv-x="1228" d="M205 0h205v408h-205v-408zM205 612h207v-202h407v202h-407v207h-207v-207zM819 0h205v408h-205v-408zM819 612h205v207h-205v-207z" />
<glyph unicode="y" horiz-adv-x="1228" d="M205 0h614v-205h-614v-205h819v1229h-205v-614h-409v614h-205v-819z" />
<glyph unicode="z" horiz-adv-x="1024" d="M205 614h205v-614h409v205h-205v614h-409v-205z" />
<glyph unicode="{" horiz-adv-x="1024" d="M205 410h205v-820h409v205h-205v1229h205v205h-409v-619h-205v-200z" />
<glyph unicode="|" horiz-adv-x="614" d="M205 -410h205v1639h-205v-1639z" />
<glyph unicode="}" horiz-adv-x="1024" d="M205 -205v-205h409v820h205v200h-205v619h-409v-205h205v-1229h-205z" />
<glyph unicode="~" horiz-adv-x="1228" d="M205 819h205v205h-205v-205zM410 1024h204v-205h205v205h-205v205h-204v-205zM819 1024h205v205h-205v-205z" />
<glyph unicode="&#xa1;" horiz-adv-x="614" d="M205 0h205v819h-205v-819zM205 1024h205v205h-205v-205z" />
<glyph unicode="&#xa2;" horiz-adv-x="1228" d="M205 205h409v-205h205v205h205v205h-205v409h205v205h-205v205h-205v-205h-409v-819zM410 410v409h204v-409h-204z" />
<glyph unicode="&#xa3;" d="M205 0h1024v205h-615v409h205v205h-205v205h410v205h-612v-410h-207v-205h207v-409h-207v-205z" />
<glyph unicode="&#xa4;" d="M205 0h205v205h-205v-205zM205 819h205v-614h614v-205h205v205h-205v614h-614v205h-205v-205zM614 410v202h205v-202h-205zM1024 819h205v205h-205v-205z" />
<glyph unicode="&#xa5;" d="M205 614h409v-204h-204v-205h204v-205h205v205h205v205h-205v204h410v615h-203v-410h-616v410h-205v-615z" />
<glyph unicode="&#xa6;" horiz-adv-x="614" d="M205 205v-615h205v615h-205zM205 614h205v615h-205v-615z" />
<glyph unicode="&#xa7;" d="M205 205h614v-205h-409v-205h614v410h205v614h-615v205h410v205h-614v-410h-205v-614zM410 410v204h614v-204h-614z" />
<glyph unicode="&#xa9;" horiz-adv-x="1843" d="M205 -205h1433v1434h-1433v-1434zM410 0v1024h1024v-1024h-1024zM614 205h615v205h-410v204h410v205h-615v-614z" />
<glyph unicode="&#xab;" horiz-adv-x="1638" d="M205 410h205v-205h204v-205h205v205h-205v205h-204v204h-205v-204zM410 614h204v205h-204v-205zM614 819h205v205h-205v-205zM819 410h205v-205h205v-205h205v205h-205v205h-205v204h-205v-204zM1024 614h205v205h-205v-205zM1229 819h205v205h-205v-205z" />
<glyph unicode="&#xad;" horiz-adv-x="1228" d="M205 410h819v204h-819v-204z" />
<glyph unicode="&#xae;" horiz-adv-x="1843" d="M205 -205h1433v1434h-1433v-1434zM410 0v1024h1024v-1024h-1024zM614 205h205v205h207v-205h203v205h-203v204h203v205h-615v-614z" />
<glyph unicode="&#xb0;" horiz-adv-x="1024" d="M205 614h614v615h-614v-615zM410 819v203h204v-203h-204z" />
<glyph unicode="&#xb1;" horiz-adv-x="1024" d="M205 205h614v205h-614v-205zM205 819h205v-205h204v205h205v205h-205v205h-204v-205h-205v-205z" />
<glyph unicode="&#xbb;" horiz-adv-x="1638" d="M205 0h205v205h-205v-205zM205 819h205v-205h204v-204h205v204h-205v205h-204v205h-205v-205zM410 205h204v205h-204v-205zM819 0h205v205h-205v-205zM819 819h205v-205h205v-204h205v204h-205v205h-205v205h-205v-205zM1024 205h205v205h-205v-205z" />
<glyph unicode="&#xbf;" d="M205 0h1024v205h-819v205h614v409h-205v-205h-614v-614zM819 1024h205v205h-205v-205z" />
<glyph unicode="&#xc0;" d="M205 0h205v410h614v-410h205v1229h-410v205h-205v204h-204v-204h204v-205h-409v-1229zM410 614v410h614v-410h-614z" />
<glyph unicode="&#xc1;" d="M205 0h205v410h614v-410h205v1229h-410v205h-205v-205h-409v-1229zM410 614v410h614v-410h-614zM819 1434h205v204h-205v-204z" />
<glyph unicode="&#xc2;" d="M205 0h205v410h614v-410h205v1229h-205v205h-205v204h-205v-204h205v-205h-205v205h-204v-205h-205v-1229zM410 614v410h614v-410h-614z" />
<glyph unicode="&#xc3;" d="M205 0h205v410h614v-410h205v1229h-205v205h-205v204h-205v-204h-204v-205h-205v-1229zM410 614v410h614v-410h-614zM614 1229v205h205v-205h-205zM1024 1434h205v204h-205v-204z" />
<glyph unicode="&#xc4;" d="M205 0h205v410h614v-410h205v1229h-1024v-1229zM205 1434h205v204h-205v-204zM410 614v410h614v-410h-614zM1024 1434h205v204h-205v-204z" />
<glyph unicode="&#xc5;" d="M205 0h205v410h614v-410h205v1229h-205v205h-205v204h-205v-204h205v-205h-205v205h-204v-205h-205v-1229zM410 614v410h614v-410h-614z" />
<glyph unicode="&#xc6;" horiz-adv-x="1638" d="M205 0h205v410h409v-410h615v205h-410v409h410v207h-410v203h410v205h-1229v-1229zM410 614v410h409v-410h-409z" />
<glyph unicode="&#xc7;" d="M205 0h409v-205h205v205h410v205h-819v819h819v205h-1024v-1229zM410 -205v-205h204v205h-204z" />
<glyph unicode="&#xc8;" d="M205 0h1024v205h-819v409h819v207h-819v203h819v205h-410v205h-205v204h-204v-204h204v-205h-409v-1229z" />
<glyph unicode="&#xc9;" d="M205 0h1024v205h-819v409h819v207h-819v203h819v205h-410v205h-205v-205h-409v-1229zM819 1434h205v204h-205v-204z" />
<glyph unicode="&#xca;" d="M205 0h1024v205h-819v409h819v207h-819v203h819v205h-205v205h-205v204h-205v-204h-204v-205h-205v-1229zM614 1229v205h205v-205h-205z" />
<glyph unicode="&#xcb;" d="M205 0h1024v205h-819v409h819v207h-819v203h819v205h-1024v-1229zM205 1434h205v204h-205v-204zM1024 1434h205v204h-205v-204z" />
<glyph unicode="&#xcc;" horiz-adv-x="614" d="M0 1434h205v-205h205v205h-205v204h-205v-204zM205 0h205v1024h-205v-1024z" />
<glyph unicode="&#xcd;" horiz-adv-x="614" d="M205 0h205v1024h-205v-1024zM205 1229h205v205h-205v-205zM410 1434h204v204h-204v-204z" />
<glyph unicode="&#xce;" horiz-adv-x="614" d="M0 1229h205v205h-205v-205zM205 0h205v1024h-205v-1024zM205 1434h205v-205h204v205h-204v204h-205v-204z" />
<glyph unicode="&#xcf;" horiz-adv-x="614" d="M0 1434h205v204h-205v-204zM205 0h205v1229h-205v-1229zM410 1434h204v204h-204v-204z" />
<glyph unicode="&#xd0;" d="M205 614h205v-614h614v205h205v819h-205v205h-614v-410h-205v-205zM614 205v409h205v205h-205v205h410v-819h-410z" />
<glyph unicode="&#xd1;" d="M205 0h205v1024h614v-1024h205v1229h-205v205h-205v204h-205v-204h-204v-205h-205v-1229zM614 1229v205h205v-205h-205zM1024 1434h205v204h-205v-204z" />
<glyph unicode="&#xd2;" d="M205 0h1024v1229h-410v205h-205v204h-204v-204h204v-205h-409v-1229zM410 207v817h614v-817h-614z" />
<glyph unicode="&#xd3;" d="M205 0h1024v1229h-410v205h-205v-205h-409v-1229zM410 207v817h614v-817h-614zM819 1434h205v204h-205v-204z" />
<glyph unicode="&#xd4;" d="M205 0h1024v1229h-205v205h-205v204h-205v-204h-204v-205h-205v-1229zM410 207v817h614v-817h-614zM614 1229v205h205v-205h-205z" />
<glyph unicode="&#xd5;" d="M205 0h1024v1229h-205v205h-205v204h-205v-204h-204v-205h-205v-1229zM410 207v817h614v-817h-614zM614 1229v205h205v-205h-205zM1024 1434h205v204h-205v-204z" />
<glyph unicode="&#xd6;" d="M205 0h1024v1229h-1024v-1229zM205 1434h205v204h-205v-204zM410 207v817h614v-817h-614zM1024 1434h205v204h-205v-204z" />
<glyph unicode="&#xd7;" horiz-adv-x="1024" d="M205 205h205v205h-205v-205zM205 614h205v-204h204v-205h205v205h-205v204h-204v205h-205v-205zM614 614h205v205h-205v-205z" />
<glyph unicode="&#xd8;" d="M205 0h1024v1229h-1024v-1229zM410 410v614h409v-205h205v-612h-410v203h-204zM614 410h205v409h-205v-409z" />
<glyph unicode="&#xd9;" d="M205 0h1024v1229h-205v-1024h-614v1024h-205v-1229zM410 1434h204v-205h205v205h-205v204h-204v-204z" />
<glyph unicode="&#xda;" d="M205 0h1024v1229h-205v-1024h-614v1024h-205v-1229zM614 1229h205v205h-205v-205zM819 1434h205v204h-205v-204z" />
<glyph unicode="&#xdb;" d="M205 0h1024v1229h-205v-1024h-614v1024h-205v-1229zM410 1229h204v205h-204v-205zM614 1434h205v-205h205v205h-205v204h-205v-204z" />
<glyph unicode="&#xdc;" d="M205 0h1024v1229h-205v-1024h-614v1024h-205v-1229zM205 1434h205v204h-205v-204zM1024 1434h205v204h-205v-204z" />
<glyph unicode="&#xdd;" d="M205 410h409v-410h205v410h410v819h-203v-615h-616v615h-205v-819zM614 1229h205v205h-205v-205zM819 1434h205v204h-205v-204z" />
<glyph unicode="&#xde;" d="M205 0h205v205h819v819h-817v205h-207v-1229zM410 410v409h614v-409h-614z" />
<glyph unicode="&#xdf;" d="M205 0h205v1024h204v-614h410v-205h-410v-205h615v614h-410v410h205v205h-819v-1229z" />
<glyph unicode="&#xe0;" horiz-adv-x="1228" d="M205 0h409v205h-204v409h409v-614h205v819h-819v-819zM410 1229h204v-205h205v205h-205v205h-204v-205z" />
<glyph unicode="&#xe1;" horiz-adv-x="1228" d="M205 0h409v205h-204v409h409v-614h205v819h-819v-819zM410 1024h204v205h-204v-205zM614 1229h205v205h-205v-205z" />
<glyph unicode="&#xe2;" horiz-adv-x="1228" d="M205 0h409v205h-204v409h409v-614h205v819h-819v-819zM410 1024h204v205h-204v-205zM614 1229h205v-205h205v205h-205v205h-205v-205z" />
<glyph unicode="&#xe3;" horiz-adv-x="1228" d="M205 0h409v205h-204v409h409v-614h205v819h-819v-819zM205 1024h205v205h-205v-205zM410 1229h204v-205h205v205h-205v205h-204v-205zM819 1229h205v205h-205v-205z" />
<glyph unicode="&#xe4;" horiz-adv-x="1228" d="M205 0h409v205h-204v409h409v-614h205v819h-819v-819zM205 1024h205v205h-205v-205zM819 1024h205v205h-205v-205z" />
<glyph unicode="&#xe5;" horiz-adv-x="1228" d="M205 0h409v205h-204v409h409v-614h205v1024h-205v205h-409v-205h409v-205h-409v205h-205v-1024z" />
<glyph unicode="&#xe6;" horiz-adv-x="1638" d="M205 0h409v205h-204v409h409l-2 -614h617v205h-410v409h205v-204h205v409h-1229v-819z" />
<glyph unicode="&#xe7;" horiz-adv-x="1228" d="M205 0h409v-205h205v205h205v205h-614v409h614v205h-819v-819zM410 -205v-205h204v205h-204z" />
<glyph unicode="&#xe8;" horiz-adv-x="1228" d="M205 0h819v205h-614v409h409v-204h205v409h-819v-819zM410 1229h204v-205h205v205h-205v205h-204v-205z" />
<glyph unicode="&#xe9;" horiz-adv-x="1228" d="M205 0h819v205h-614v409h409v-204h205v409h-819v-819zM410 1024h204v205h-204v-205zM614 1229h205v205h-205v-205z" />
<glyph unicode="&#xea;" horiz-adv-x="1228" d="M205 0h819v205h-614v409h409v-204h205v409h-819v-819zM410 1024h204v205h-204v-205zM614 1229h205v-205h205v205h-205v205h-205v-205z" />
<glyph unicode="&#xeb;" horiz-adv-x="1228" d="M205 0h819v205h-614v409h409v-204h205v409h-819v-819zM205 1024h205v205h-205v-205zM819 1024h205v205h-205v-205z" />
<glyph unicode="&#xec;" horiz-adv-x="614" d="M0 1229h205v-205h205v205h-205v205h-205v-205zM205 0h205v819h-205v-819z" />
<glyph unicode="&#xed;" horiz-adv-x="819" d="M205 0h205v819h-205v-819zM205 1024h205v205h-205v-205zM410 1229h204v205h-204v-205z" />
<glyph unicode="&#xee;" horiz-adv-x="819" d="M0 1024h205v205h-205v-205zM205 0h205v819h-205v-819zM205 1229h205v-205h204v205h-204v205h-205v-205z" />
<glyph unicode="&#xef;" horiz-adv-x="819" d="M0 1024h205v205h-205v-205zM205 0h205v819h-205v-819zM410 1024h204v205h-204v-205z" />
<glyph unicode="&#xf0;" horiz-adv-x="1228" d="M205 0h614v819h205v205h-205v205h-205v-205h-204v-205h204v-205h-409v-614zM410 205v205h204v-205h-204z" />
<glyph unicode="&#xf1;" horiz-adv-x="1228" d="M205 0h205v614h409v-614h205v819h-819v-819zM205 1024h205v205h-205v-205zM410 1229h204v-205h205v205h-205v205h-204v-205zM819 1229h205v205h-205v-205z" />
<glyph unicode="&#xf2;" horiz-adv-x="1228" d="M205 0h819v819h-819v-819zM410 205v409h409v-409h-409zM410 1229h204v-205h205v205h-205v205h-204v-205z" />
<glyph unicode="&#xf3;" horiz-adv-x="1228" d="M205 0h819v819h-819v-819zM358 1024h205v205h-205v-205zM410 205v409h409v-409h-409zM563 1229h205v205h-205v-205z" />
<glyph unicode="&#xf4;" horiz-adv-x="1228" d="M205 0h819v819h-819v-819zM410 205v409h409v-409h-409zM410 1024h204v205h-204v-205zM614 1229h205v-205h205v205h-205v205h-205v-205z" />
<glyph unicode="&#xf5;" horiz-adv-x="1228" d="M205 0h819v819h-819v-819zM205 1024h205v205h-205v-205zM410 205v409h409v-409h-409zM410 1229h204v-205h205v205h-205v205h-204v-205zM819 1229h205v205h-205v-205z" />
<glyph unicode="&#xf6;" horiz-adv-x="1228" d="M205 0h819v819h-819v-819zM205 1024h205v205h-205v-205zM410 205v409h409v-409h-409zM819 1024h205v205h-205v-205z" />
<glyph unicode="&#xf7;" horiz-adv-x="1024" d="M205 410h614v204h-614v-204zM410 0h204v205h-204v-205zM410 819h204v205h-204v-205z" />
<glyph unicode="&#xf8;" horiz-adv-x="1228" d="M205 0h819v819h-819v-819zM410 408v206h202v-206h-202zM612 205v203h207v-203h-207z" />
<glyph unicode="&#xf9;" horiz-adv-x="1228" d="M205 0h819v819h-205v-614h-409v614h-205v-819zM410 1229h204v-205h205v205h-205v205h-204v-205z" />
<glyph unicode="&#xfa;" horiz-adv-x="1228" d="M205 0h819v819h-205v-614h-409v614h-205v-819zM410 1024h204v205h-204v-205zM614 1229h205v205h-205v-205z" />
<glyph unicode="&#xfb;" horiz-adv-x="1228" d="M205 0h819v819h-205v-614h-409v614h-205v-819zM410 1024h204v205h-204v-205zM614 1229h205v-205h205v205h-205v205h-205v-205z" />
<glyph unicode="&#xfc;" horiz-adv-x="1228" d="M205 0h819v819h-205v-614h-409v614h-205v-819zM205 1024h205v205h-205v-205zM819 1024h205v205h-205v-205z" />
<glyph unicode="&#xfd;" horiz-adv-x="1228" d="M205 0h614v-205h-614v-205h819v1229h-205v-614h-409v614h-205v-819zM410 1024h204v205h-204v-205zM614 1229h205v205h-205v-205z" />
<glyph unicode="&#xfe;" horiz-adv-x="1228" d="M205 -205h205v205h614v614h-614v205h-205v-1024zM410 205v205h409v-205h-409z" />
<glyph unicode="&#xff;" horiz-adv-x="1228" d="M205 0h614v-205h-614v-205h819v1229h-205v-614h-409v614h-205v-819zM205 1024h205v205h-205v-205zM819 1024h205v205h-205v-205z" />
<glyph unicode="&#x152;" horiz-adv-x="1638" d="M205 0h1229v205h-410v409h410v207h-410v203h410v205h-1229v-1229zM410 207v817h409v-817h-409z" />
<glyph unicode="&#x153;" horiz-adv-x="1638" d="M205 0h1229v205h-410v409h205v-204h205v409h-1229v-819zM410 205v409h409v-409h-409z" />
<glyph unicode="&#x178;" d="M205 410h409v-410h205v410h410v819h-203v-615h-616v615h-205v-819zM205 1434h205v204h-205v-204zM1024 1434h205v204h-205v-204z" />
<glyph unicode="&#x2c6;" horiz-adv-x="1024" d="M205 819h205v205h-205v-205zM410 1024h204v-205h205v205h-205v205h-204v-205z" />
<glyph unicode="&#x2dc;" horiz-adv-x="1228" d="M205 819h205v205h-205v-205zM410 1024h204v-205h205v205h-205v205h-204v-205zM819 1024h205v205h-205v-205z" />
<glyph unicode="&#x2000;" horiz-adv-x="819" />
<glyph unicode="&#x2001;" horiz-adv-x="1638" />
<glyph unicode="&#x2002;" horiz-adv-x="819" />
<glyph unicode="&#x2003;" horiz-adv-x="1638" />
<glyph unicode="&#x2004;" horiz-adv-x="546" />
<glyph unicode="&#x2005;" horiz-adv-x="409" />
<glyph unicode="&#x2006;" horiz-adv-x="273" />
<glyph unicode="&#x2007;" horiz-adv-x="273" />
<glyph unicode="&#x2008;" horiz-adv-x="204" />
<glyph unicode="&#x2009;" horiz-adv-x="327" />
<glyph unicode="&#x200a;" horiz-adv-x="91" />
<glyph unicode="&#x2010;" horiz-adv-x="1228" d="M205 410h819v204h-819v-204z" />
<glyph unicode="&#x2011;" horiz-adv-x="1228" d="M205 410h819v204h-819v-204z" />
<glyph unicode="&#x2012;" horiz-adv-x="1228" d="M205 410h819v204h-819v-204z" />
<glyph unicode="&#x2013;" d="M205 410h1024v204h-1024v-204z" />
<glyph unicode="&#x2014;" horiz-adv-x="2457" d="M205 410h2048v204h-2048v-204z" />
<glyph unicode="&#x202f;" horiz-adv-x="327" />
<glyph unicode="&#x205f;" horiz-adv-x="409" />
<glyph unicode="&#x2122;" horiz-adv-x="2048" d="M205 1024h207v-410h202v410h205v205h-614v-205zM1024 614h205v205h409v-225h205v635h-819v-615z" />
<glyph unicode="&#x25fc;" horiz-adv-x="819" d="M0 0v819h819v-819h-819z" />
</font>
</defs>
</svg>
